<svg xmlns="http://www.w3.org/2000/svg" viewBox="0 0 21.33 36.52"><defs><style>.cls-1{fill:#da1212;}</style></defs><g id="Capa_2" data-name="Capa 2"><g id="Aplicaciones"><path d="M21.33,14.45V6.16L19.48,5.09,10.67,0,0,6.16V36.52H21.33V20.23l-1.85-1.07-3.15-1.82,3.15-1.82Zm-2.18-1.26-5.12,3L12,17.34,14,18.54l5.12,2.95V34.33h-17V7.42l8.48-4.89,8.48,4.89Z"/><polygon class="cls-1" points="15.66 13.71 15.66 9.43 10.67 6.54 5.67 9.43 5.67 15.2 17.85 22.24 17.85 33.04 3.48 33.04 3.48 17.96 5.67 19.22 5.67 30.85 15.66 30.85 15.66 23.5 7.07 18.54 3.48 16.46 3.48 8.17 10.67 4.02 17.85 8.17 17.85 12.45 15.66 13.71"/></g></g></svg>