<?xml version="1.0" ?>
<!-- Uploaded to: SVG Repo, www.svgrepo.com, Generator: SVG Repo Mixer Tools -->
<svg fill="#000000" width="800px" height="800px" viewBox="0 0 512 512" xmlns="http://www.w3.org/2000/svg">
<g id="Wellness_start_up">
<path d="M289.0156,141.7715c-13.2226,0-22.7385,10.9863-28.093,19.4143a5.7619,5.7619,0,0,1-9.793-.1172c-5.0879-8.4121-14.3808-19.2971-28.405-19.2971-18.291,0-33.1189,14.3445-33.1189,32.039a31.1653,31.1653,0,0,0,.5776,5.9407l-.0087.0034c.0158.0784.208.95.2929,1.305,6.6324,28.3615,39.4529,54.0322,55.93,65.3808a16.6879,16.6879,0,0,0,18.9448,0c16.4773-11.3486,49.2976-37.0193,55.93-65.3808.085-.3555.2771-1.2266.293-1.305l-.0088-.0034a31.1653,31.1653,0,0,0,.5776-5.9407C322.1345,156.116,307.3066,141.7715,289.0156,141.7715Zm-3.1008,62.5972h-12.563l-5.0005,11.541a7.9548,7.9548,0,0,1-7.3589,4.8476c-.1826,0-.3662-.0058-.5512-.0185a7.9619,7.9619,0,0,1-7.21-5.8223l-6.9272-24.293-4.2,10.3047a8.0138,8.0138,0,0,1-7.4506,5.01h-9.1372a5,5,0,1,1,0-10H233.34l5.8408-14.332a8.0453,8.0453,0,0,1,15.188.83l6.9805,24.4815,3.3374-7.7022a8.0427,8.0427,0,0,1,7.3828-4.8466h13.8457a5,5,0,0,1,0,10Z"/>
<path d="M401.1785,379.0745l-18.9141-54.2207a43.2614,43.2614,0,0,0-40.8472-29.0122h-9.238l18.3416-77.8235a162.9933,162.9933,0,0,0-14.3663-113.1953c-22.8711-43.5284-37.8154-69.5567-44.4189-77.36-7.9619-9.41-21.3125-15.0283-35.7119-15.0283s-27.749,5.6181-35.711,15.0283c-6.6035,7.8037-21.5478,33.832-44.4189,77.36a162.9933,162.9933,0,0,0-14.3662,113.1953l18.3415,77.8235h-9.2863a43.2614,43.2614,0,0,0-40.8472,29.0122l-18.9141,54.2207a6.4679,6.4679,0,0,0,9.8033,7.438l38.9477-27.1246a43.2624,43.2624,0,0,1,24.7236-7.7607h16.47l-3.57,6.55c-.65,1.1924-15.8125,29.6153-6.1817,64.3926l.0039.0156a190.244,190.244,0,0,0,13.7647,35.1885,13.5187,13.5187,0,0,0,12.0752,7.3653h.0332a13.5688,13.5688,0,0,0,12.1152-7.4512l2.1182-4.17a1.5375,1.5375,0,0,1,1.5058-.8858,1.4685,1.4685,0,0,1,1.3789.9229,166.1648,166.1648,0,0,0,25.4551,40.3828,15.5446,15.5446,0,0,0,11.9434,5.6279,15.7969,15.7969,0,0,0,15.7724-15.581c.2041-13.4746,3.72-24.3692,10.4512-32.3809,27.8984-33.2148,26.6484-65.251,26.4111-68.8232a52.3551,52.3551,0,0,0-10.6528-31.1536h14.3145a43.2624,43.2624,0,0,1,24.7236,7.7607l38.9477,27.1246A6.4679,6.4679,0,0,0,401.1785,379.0745Zm-91.2163,23.1008c-2.4317,10.2353-8.1387,25.7793-21.52,41.71-8.5527,10.1806-13.0146,23.6113-13.2607,39.9179a3.6467,3.6467,0,0,1-2.5049,3.5362,3.5161,3.5161,0,0,1-4.0215-1.1143A154.2539,154.2539,0,0,1,245.0178,448.78a13.43,13.43,0,0,0-12.0244-8.1416c-.1445-.0039-.2871-.0069-.4307-.0069a13.504,13.504,0,0,0-12.1377,7.4522l-2.1181,4.1689a1.5432,1.5432,0,0,1-1.4444.8868h-.0048a1.4968,1.4968,0,0,1-1.4034-.8516,178.0556,178.0556,0,0,1-12.8759-32.9209c-7.8086-28.1953,3.5351-52.2266,5.0019-55.15l.1582-.291a46.32,46.32,0,0,1,9.8377-12.2981l18.4887.06a29.3563,29.3563,0,0,0-9.5385,21.689c0,.5666.02,1.1286.0515,1.6875.6826,15.9038,11.6562,30.2187,19.9946,38.8764a13.0287,13.0287,0,0,0,18.7815,0c8.3374-8.6562,19.3088-22.9682,19.9939-38.8711.0317-.5607.0518-1.1245.0518-1.6928a29.3564,29.3564,0,0,0-9.5386-21.689l21.3906-.06c9.1575,8.22,14.7915,19.2485,14.7915,31.3782l.0195.4873C312.0686,383.5669,312.6086,391.0376,309.9622,402.1753Zm4.1894-82.1514a25.4205,25.4205,0,0,1-24.8359,19.6631h-24.34V325.1714a9,9,0,0,0-18,0V339.687H222.7327a25.4206,25.4206,0,0,1-24.836-19.6631L173.2073,215.2661a150.995,150.995,0,0,1,13.3095-104.8613c9.9827-18.9995,17.74-33.2908,23.7691-44.0457a47.6792,47.6792,0,0,0,7.8584,4.0348c10.2,4.16,23.64,6.46,37.83,6.46a6,6,0,0,0,0-12c-19.6573,0-33.1751-4.52-39.7334-8.9485,7.6479-13.1753,11.4072-18.5344,13.2319-20.6911,5.7119-6.751,15.6377-10.78,26.5508-10.78s20.84,4.0293,26.5517,10.78c1.8228,2.1545,5.5762,7.5048,13.2085,20.6508a47.8488,47.8488,0,0,1-14.82,6.0987,6.0012,6.0012,0,0,0,1.46,11.82,6.247,6.247,0,0,0,1.48-.18,60.6783,60.6783,0,0,0,17.8428-7.2722c6.0312,10.7579,13.7932,25.0574,23.7844,44.073a150.995,150.995,0,0,1,13.31,104.8613Z"/>
</g>
</svg>